<?xml version="1.0" encoding="utf-8"?>
<!-- Generator: Adobe Illustrator 28.2.0, SVG Export Plug-In . SVG Version: 6.00 Build 0)  -->
<svg version="1.1" id="Layer_1" xmlns="http://www.w3.org/2000/svg" xmlns:xlink="http://www.w3.org/1999/xlink" x="0px" y="0px"
	 viewBox="0 0 606 301" style="enable-background:new 0 0 606 301;" xml:space="preserve">
<style type="text/css">
	.st0{fill:#DBD9CD;}
</style>
<g>
	<g>
		<path class="st0" d="M189.68,126.42h8.92c2.4,0,5.99,14.38,10.78,43.14h5.46c7.19-28.76,11.98-43.14,14.38-43.14h7.19
			c2.4,0.36,3.59,1.55,3.59,3.59c-4.97,0-10.96,15-17.97,45l-8.92,7.19c-5.33,0-11.36-15-18.11-45c-1.6,0-4.57-2.97-8.92-8.92
			L189.68,126.42z"/>
		<path class="st0" d="M271.16,123.63c4.79,1.78,7.19,3.55,7.19,5.33l-5.46,7.19v23.43c0,1.15-0.58,1.73-1.73,1.73
			c0,6.66,3.59,12.07,10.78,16.24c0,1.78-1.82,3.59-5.46,5.46h-3.59l-17.97-1.86v-3.59c6.03-3.2,9.05-12.2,9.05-27.03v-12.51
			l-7.19-7.19v-1.86C256.78,126.56,261.57,124.78,271.16,123.63z"/>
		<path class="st0" d="M307.11,126.02h14.38c12.6,0,19.84,10.21,21.7,30.62c0,18.02-7.24,27.03-21.7,27.03h-21.57
			c-2.4,0-3.59-1.2-3.59-3.59v-1.86c3.64-3.9,5.46-6.92,5.46-9.05c0-2.13,0.58-12.91,1.73-32.35c-1.69,0-3.46-1.77-5.33-5.33v-3.59
			L307.11,126.02z M310.7,138.67v35.95h14.38c6.03-3.11,9.05-7.9,9.05-14.38v-12.65c0-8.34-4.22-12.51-12.65-12.51h-7.19
			C311.9,135.43,310.7,136.63,310.7,138.67z"/>
		<path class="st0" d="M372.88,126.56h1.73c5.41,2.93,12.6,18.55,21.57,46.86c3.64,0,5.46,1.2,5.46,3.59c0,1.69-1.82,3.46-5.46,5.33
			h-7.19c-2.4,0-3.59-1.2-3.59-3.59v-3.59l1.86-3.59l-5.46-3.59h-16.38c-2.22,0-3.33,4.17-3.33,12.51v1.86h-12.65
			c-1.69,0-3.51-1.77-5.46-5.33c8.34-5.06,13.76-14.07,16.24-27.03C365.82,134.37,370.04,126.56,372.88,126.56z M365.56,157.18
			c5.15,2.4,8.79,3.59,10.92,3.59c2.31-1.24,4.08-1.86,5.33-1.86v-1.73c0-2.4-1.2-8.39-3.59-17.97h-3.59
			C371.86,139.2,368.84,145.2,365.56,157.18z"/>
		<path class="st0" d="M422.01,126.02h7.19c6.48,0,10.69,2.4,12.65,7.19c0,2.4-1.24,3.59-3.73,3.59h-1.73
			c-1.15,0-5.95-1.2-14.38-3.59c-2.93,2.4-5.33,3.59-7.19,3.59v3.59c0,2.84,7.77,7.06,23.3,12.65c6.03,6.3,9.05,12.29,9.05,17.97
			c-3.11,8.43-9.1,12.65-17.97,12.65c-16.78-1.24-25.16-6.66-25.16-16.24l3.59-1.86c7.19,4.88,13.85,7.9,19.97,9.05
			c3.02,0,5.95-3.02,8.79-9.05c0-2.31-7.81-7.1-23.43-14.38c-3.55-5.95-5.33-10.74-5.33-14.38
			C410.11,129.62,414.9,126.02,422.01,126.02z"/>
		<path class="st0" d="M80.37,206.49l7.19,1.73c2.4-1.15,4.21-1.73,5.46-1.73c4.79,5.33,7.19,8.3,7.19,8.92v5.46h-5.33l-7.32-5.46
			H75.05c-7.19,4.17-10.78,9.59-10.78,16.24v7.19c0,5.95,2.97,11.36,8.92,16.24h10.78c6.39-6.03,11.23-9.05,14.51-9.05l3.59,5.33
			c-3.64,8.43-9.68,12.65-18.11,12.65h-1.73c-16.78-2.75-25.16-10.56-25.16-23.43v-8.92C59.56,214.88,67.33,206.49,80.37,206.49z"/>
		<path class="st0" d="M133.23,208.36h1.73c5.41,2.93,12.6,18.55,21.57,46.86c3.64,0,5.46,1.2,5.46,3.59c0,1.69-1.82,3.46-5.46,5.33
			h-7.19c-2.4,0-3.59-1.2-3.59-3.59v-3.59l1.86-3.59l-5.46-3.59h-16.38c-2.22,0-3.33,4.17-3.33,12.51v1.86H109.8
			c-1.69,0-3.51-1.77-5.46-5.33c8.34-5.06,13.76-14.07,16.24-27.03C126.17,216.17,130.39,208.36,133.23,208.36z M125.91,238.98
			c5.15,2.4,8.79,3.59,10.92,3.59c2.31-1.24,4.08-1.86,5.33-1.86v-1.73c0-2.4-1.2-8.39-3.59-17.97h-3.59
			C132.21,221,129.19,227,125.91,238.98z"/>
		<path class="st0" d="M167.58,208.22h1.86c4.26,0,9.63,12.6,16.11,37.81h1.86c1.86,0,5.46-11.98,10.78-35.95l3.59-1.86h5.33
			c2.48,0.36,3.73,1.55,3.73,3.59c-2.49,3.91-3.73,6.92-3.73,9.05c0,9.85,1.24,23.03,3.73,39.54l-3.73,1.86h-5.33
			c-2.4,0-3.59-1.2-3.59-3.59c2.4-3.99,3.59-7.63,3.59-10.92v-16.11h-3.59c-4.08,19.17-7.68,28.76-10.78,28.76h-3.59
			c-3.37,0-6.97-12.6-10.78-37.81h-1.86c0,1.24-0.58,1.86-1.73,1.86l1.73,3.59c0,3.99-0.58,6.97-1.73,8.92
			c1.15,10.56,2.93,17.17,5.33,19.84v1.86c0,2.4-1.2,3.59-3.59,3.59h-5.33l-3.73-1.86l1.86-12.65v-16.11c0-2.75,0.62-5.15,1.86-7.19
			c-1.24-2.13-1.86-4.53-1.86-7.19v-5.46C164.34,209.42,165.54,208.22,167.58,208.22z"/>
		<path class="st0" d="M227.62,205.43c22.81,0,34.22,5.37,34.22,16.11v1.86c0,9.59-9.1,16.16-27.29,19.7
			c-1.15,2.4-1.73,4.22-1.73,5.46c3.73,3.91,5.59,7.5,5.59,10.78c-1.24,3.64-4.84,5.46-10.78,5.46c-2.13,0-5.15-1.2-9.05-3.59
			l5.46-9.05v-34.22l-3.59-5.33v-1.86C220.44,209.6,222.83,207.82,227.62,205.43z M233.22,218.34v9.32c0,4.53,3.24,6.79,9.72,6.79
			c6.3-2.31,9.45-4.57,9.45-6.79v-7.06c0-2.22-2.4-4.53-7.19-6.92h-7.06C234.86,214.13,233.22,215.68,233.22,218.34z"/>
		<path class="st0" d="M276.62,207.56c2.4,0,3.59,0.58,3.59,1.73l12.51-1.73h12.65c2.4,0,4.79,4.17,7.19,12.51l-3.59,1.86
			c-1.95-4.79-6.17-7.19-12.65-7.19h-1.73l-9.05,1.73v9.05c0.44,2.4,1.64,3.59,3.59,3.59l5.46-3.59h1.73
			c1.69,0.09,4.13,3.06,7.32,8.92v3.59c0,2.4-1.2,3.59-3.59,3.59l-5.46-3.59h-9.05c0,4.79-0.58,7.19-1.73,7.19
			c0,7.28,3.59,10.92,10.78,10.92h1.73l18.11-5.46l1.73,3.59v1.86c-3.11,5.86-5.5,8.83-7.19,8.92h-34.22c-2.4,0-3.59-1.2-3.59-3.59
			v-1.73c0-2.4,1.82-3.59,5.46-3.59c1.15-18.02,1.73-31.24,1.73-39.68c-3.55,0-5.33-1.2-5.33-3.59v-1.73
			C273.38,208.76,274.58,207.56,276.62,207.56z"/>
		<path class="st0" d="M342.12,207.82h7.19c6.48,0,10.69,2.4,12.65,7.19c0,2.4-1.24,3.59-3.73,3.59h-1.73
			c-1.15,0-5.95-1.2-14.38-3.59c-2.93,2.4-5.33,3.59-7.19,3.59v3.59c0,2.84,7.77,7.06,23.3,12.65c6.03,6.3,9.05,12.29,9.05,17.97
			c-3.11,8.43-9.1,12.65-17.97,12.65c-16.78-1.24-25.16-6.66-25.16-16.24l3.59-1.86c7.19,4.88,13.85,7.9,19.97,9.05
			c3.02,0,5.95-3.02,8.79-9.05c0-2.31-7.81-7.1-23.43-14.38c-3.55-5.95-5.33-10.74-5.33-14.38
			C330.23,211.42,335.02,207.82,342.12,207.82z"/>
		<path class="st0" d="M404.3,205.43c4.79,1.78,7.19,3.55,7.19,5.33l-5.46,7.19v23.43c0,1.15-0.58,1.73-1.73,1.73
			c0,6.66,3.59,12.07,10.78,16.24c0,1.78-1.82,3.59-5.46,5.46h-3.59l-17.97-1.86v-3.59c6.03-3.2,9.05-12.2,9.05-27.03v-12.51
			l-7.19-7.19v-1.86C389.92,208.36,394.71,206.58,404.3,205.43z"/>
		<path class="st0" d="M434.65,208.22h9.05c3.64,0,9.63,11.41,17.97,34.22h3.59V226.2l-1.86-17.97h9.05
			c2.4,0.36,3.59,1.55,3.59,3.59c-2.4,0.36-3.59,1.55-3.59,3.59v43.27c0,2.4-1.2,3.59-3.59,3.59c-5.06-2.57-12.25-14.6-21.57-36.08
			h-3.59v21.57c2.4,8.61,3.59,13.45,3.59,14.51l-12.65,1.73l-3.59-5.33l5.46-7.32v-19.7l1.73-12.65c-1.86,0-4.26-2.4-7.19-7.19
			C431.41,209.42,432.61,208.22,434.65,208.22z"/>
		<path class="st0" d="M506.02,208.36h1.73c5.41,2.93,12.6,18.55,21.57,46.86c3.64,0,5.46,1.2,5.46,3.59c0,1.69-1.82,3.46-5.46,5.33
			h-7.19c-2.4,0-3.59-1.2-3.59-3.59v-3.59l1.86-3.59l-5.46-3.59h-16.38c-2.22,0-3.33,4.17-3.33,12.51v1.86h-12.65
			c-1.69,0-3.51-1.77-5.46-5.33c8.34-5.06,13.76-14.07,16.24-27.03C498.96,216.17,503.17,208.36,506.02,208.36z M498.69,238.98
			c5.15,2.4,8.79,3.59,10.92,3.59c2.31-1.24,4.08-1.86,5.33-1.86v-1.73c0-2.4-1.2-8.39-3.59-17.97h-3.59
			C504.99,221,501.98,227,498.69,238.98z"/>
		<path class="st0" d="M555.14,207.82h7.19c6.48,0,10.69,2.4,12.65,7.19c0,2.4-1.24,3.59-3.73,3.59h-1.73
			c-1.15,0-5.95-1.2-14.38-3.59c-2.93,2.4-5.33,3.59-7.19,3.59v3.59c0,2.84,7.77,7.06,23.3,12.65c6.03,6.3,9.05,12.29,9.05,17.97
			c-3.11,8.43-9.1,12.65-17.97,12.65c-16.78-1.24-25.16-6.66-25.16-16.24l3.59-1.86c7.19,4.88,13.85,7.9,19.97,9.05
			c3.02,0,5.95-3.02,8.79-9.05c0-2.31-7.81-7.1-23.43-14.38c-3.55-5.95-5.33-10.74-5.33-14.38
			C543.25,211.42,548.04,207.82,555.14,207.82z"/>
	</g>
	<g>
		<path class="st0" d="M94.05,166.72c-0.76,0-1.53,0-2.29,0c-0.24-0.35-0.4-0.81-0.73-1.04c-1.45-0.99-2-2.41-2.05-4.07
			c-0.02-0.68-0.04-1.33-0.31-1.98c-0.18-0.44-0.22-0.98-0.19-1.47c0.08-1.08,0.27-2.15,0.39-3.23c0.05-0.41,0.1-0.82,0.06-1.22
			c-0.08-0.87-0.2-1.74-0.32-2.6c-0.1-0.74-0.42-1.38-1.14-1.66c-0.69-0.28-1.25,0.12-1.74,0.56c-0.22,0.2-0.4,0.43-0.58,0.66
			c-0.39,0.51-0.75,1.05-1.15,1.56c-1.13,1.41-1.61,3.03-1.63,4.82c0,0.34-0.06,0.71-0.19,1.03c-0.46,1.19-1.18,2.21-2.16,3.06
			c-0.45,0.39-0.82,0.91-1.14,1.42c-0.37,0.61-0.85,0.95-1.56,0.96c-0.21,0-0.41,0.01-0.62,0.01c-1.8-0.02-3.01-1.23-2.88-3.02
			c0.08-1.01,0.29-2.04,0.59-3.01c0.9-2.88,1.89-5.73,2.83-8.6c0.16-0.48,0.22-1,0.33-1.54c-1.25-0.68-2.52-1.05-3.74-0.85
			c-1.55,0.26-3.03,0.94-4.22,2.05c-0.31,0.29-0.53,0.69-0.78,1.05c-0.37,0.52-0.68,1.1-1.11,1.57c-1.05,1.12-2.05,2.26-2.6,3.73
			c-0.03,0.08-0.08,0.16-0.12,0.23c-1.26,2.51-4.52,2.41-6.23,1.02c-0.16-0.13-0.31-0.29-0.39-0.47c-0.46-0.99-0.9-1.99-0.82-3.11
			c0.03-0.46,0.07-1,0.33-1.34c0.81-1.06,1.47-2.27,2.65-3.02c1.91-1.21,2.94-2.95,3.2-5.2c0.21-1.9-1.22-3.66-2.95-3.43
			c-1.8,0.23-3.47,0.83-4.94,1.93c-1.51,1.14-2.83,2.47-4,3.95c-0.79,1.01-1.73,1.65-3.08,1.5c-0.38-0.04-0.76,0-1.14-0.01
			c-1.51-0.04-2.17-0.76-2-2.23c0.15-1.3,0.57-2.5,1.27-3.62c0.62-0.99,1.11-2.06,1.67-3.08c0.19-0.36,0.38-0.73,0.65-1.03
			c0.94-1.05,1.92-2.06,2.87-3.1c0.27-0.3,0.5-0.63,0.73-0.93c-0.43-0.83-0.86-1.57-1.21-2.33c-0.79-1.74-2.6-2.37-4.24-1.38
			c-0.98,0.59-1.9,1.27-2.85,1.91c-0.83,0.55-1.62,1.18-2.51,1.62c-2.31,1.14-4.69,1.09-7.07,0.14c-0.89-0.36-1.36-1.01-1.41-1.94
			c-0.05-0.87,0.3-1.59,0.96-2.17c1.08-0.95,2.14-1.93,3.21-2.88c1.13-1,2.36-1.78,3.91-2.07c1.76-0.33,2.98-1.45,3.7-3.08
			c0.13-0.28,0.24-0.64,0.18-0.92c-0.25-1.23-0.54-2.46-0.87-3.68c-0.09-0.33-0.32-0.63-0.52-0.91c-0.93-1.3-2.35-1.39-3.72-1.26
			c-1.27,0.12-2.52,0.51-3.77,0.79c-1.06,0.24-2.1,0.57-3.17,0.7c-1.79,0.23-3.52,0.05-5-1.15c-0.48-0.39-0.93-0.82-1.43-1.17
			c-1-0.7-1.11-2.78-0.22-3.54c0.85-0.74,1.77-1.26,2.83-1.55c2.49-0.68,4.98-1.33,7.48-1.96c0.43-0.11,0.92-0.09,1.36-0.02
			c0.51,0.08,0.93,0.02,1.27-0.38c0.46-0.53,0.96-1.03,1.38-1.6c0.9-1.24,0.51-3.21-0.78-4.01c-0.72-0.45-1.47-0.88-2.25-1.2
			c-0.43-0.18-0.97-0.23-1.43-0.16c-0.89,0.13-1.77,0.39-2.7,0.6c-0.86-0.6-1.87-0.56-2.87-0.48c-1.27,0.1-2.28-0.36-3.18-1.21
			c-0.72-0.68-1.5-1.31-2.25-1.96c0-1.06,0-2.12,0-3.17c0.56-0.16,1.12-0.4,1.69-0.48c1.77-0.27,3.54-0.46,5.31-0.73
			c1.44-0.22,2.86-0.15,4.28,0.14c0.42,0.09,0.9,0.08,1.3-0.05c0.95-0.3,1.91-0.61,2.79-1.07c0.74-0.39,1.45-0.91,2.03-1.51
			c1.57-1.62,1.28-3.8-0.59-5.04c-0.34-0.22-0.67-0.48-0.95-0.77c-0.69-0.72-1.53-1.06-2.51-1.12c-0.53-0.03-1.06-0.03-1.58-0.13
			c-1.59-0.28-3.16-0.65-4.75-0.89c-1.85-0.27-3.32-1.61-3.64-3.44c-0.06-0.35-0.09-0.71-0.21-1.03c-0.24-0.67-0.13-1.3,0.23-1.86
			c0.33-0.51,0.73-0.98,1.16-1.43c0.79-0.83,1.73-1.04,2.81-0.57c1.58,0.7,3.25,0.93,4.97,1c0.74,0.03,1.59,0.16,2.18,0.55
			c1.36,0.92,2.82,0.9,4.32,0.79c0.79-0.06,1.38-0.47,1.71-1.21c0.48-1.08,0.84-2.19,0.81-3.4c-0.02-1.31-0.43-1.79-1.73-1.98
			c-2.08-0.31-3.95-1.11-5.63-2.36c-0.37-0.27-0.72-0.63-0.95-1.02c-0.73-1.24-1.43-2.5-2.08-3.78c-0.56-1.09-0.2-2.25,0.82-2.92
			c1.66-1.09,3.37-1.08,5.1,0.1c1.99,1.36,3.94,2.76,5.92,4.13c1.39,0.96,2.95,0.67,3.9-0.72c0.13-0.19,0.26-0.39,0.39-0.59
			c0.82-1.27,0.92-2.58,0.16-3.91c-0.36-0.63-0.88-1.19-1.17-1.85c-0.56-1.26-1.43-2.24-2.56-2.94c-1.73-1.08-2.88-2.63-3.89-4.33
			c-0.25-0.41-0.36-0.83,0.02-1.21c1.41-1.46,3.09-2.27,5.14-1.87c1.03,0.2,2.06,0.58,2.62,1.6c0.52,0.96,1.03,1.91,1.94,2.57
			c0.16,0.11,0.25,0.33,0.35,0.5c0.69,1.21,1.74,2,3.03,2.41c1.27,0.4,2.65,0.58,3.85-0.12c0.97-0.57,1.83-1.37,2.65-2.15
			c0.61-0.58,0.78-1.38,0.49-2.2c-0.2-0.58-0.4-1.18-0.73-1.69c-0.84-1.34-1.69-2.69-2.65-3.94c-0.84-1.1-0.9-2.24-0.63-3.49
			c0.18-0.83,0.64-1.5,1.15-2.15c1.22-1.53,3.21-1.56,4.46-0.04c0.26,0.32,0.5,0.65,0.75,0.98c1.56,2.08,3.36,3.99,4.48,6.4
			c0.6,1.29,1.8,1.86,3.27,1.81c1.63-0.06,2.61-1.11,2.51-2.73c-0.06-0.94-0.09-1.87-0.14-2.81c-0.09-1.65-0.37-3.26-0.99-4.8
			c-0.25-0.62-0.49-1.26-0.66-1.91c-0.31-1.17-0.1-2.27,0.58-3.28c0.75-1.12,1.94-1.55,3.23-1.11c1.41,0.48,2.58,1.26,3.19,2.7
			c0.16,0.38,0.38,0.73,0.56,1.1c1.48,2.88,2.5,5.87,2.45,9.16c-0.01,0.32,0.03,0.65,0.14,0.95c0.43,1.2,1.26,1.96,2.54,2.16
			c1.36,0.21,2.34-0.31,2.92-1.58c0.44-0.96,0.97-1.88,1.38-2.85c0.2-0.47,0.32-1.01,0.33-1.52c0.04-1.41,0-2.82,0.02-4.23
			c0.01-0.43,0.05-0.91,0.23-1.28c0.67-1.37,1.32-2.76,2.15-4.03c1.1-1.71,1.61-1.87,3.61-1.57c0.36,0.05,0.78,0.19,1.03,0.43
			c1.02,0.98,1.75,2.12,1.73,3.62c-0.02,1.7-0.02,3.41,0,5.11c0.01,0.72-0.11,1.39-0.47,2.03c-0.51,0.92-0.54,1.89-0.25,2.9
			c0.16,0.56,0.26,1.14,0.34,1.71c0.14,1.09,0.96,1.83,2.06,1.72c0.96-0.09,1.92-0.23,2.87-0.41c1.5-0.28,2.01-0.94,2.01-2.49
			c0-0.85-0.09-1.71,0.02-2.55c0.17-1.35,0.54-2.65,1.69-3.55c0.9-0.71,1.36-1.64,1.5-2.78c0.14-1.15,0.88-1.95,1.77-2.63
			c0.7-0.53,1.46-0.31,2.2-0.14c0.4,0.09,0.83,0.17,1.16,0.4c0.47,0.33,1.03,0.7,1.25,1.18c0.69,1.59,1.12,3.2-0.05,4.83
			c-0.79,1.11-1.22,2.43-1.28,3.79c-0.04,1.03-0.3,1.95-0.69,2.88c-0.15,0.36-0.22,0.81-0.14,1.18c0.21,0.97,0.49,1.93,0.8,2.88
			c0.35,1.06,0.86,1.34,1.94,1.14c2.1-0.38,3.78-1.37,4.84-3.29c0.41-0.74,0.71-1.48,0.68-2.33c-0.03-0.89,0.26-1.67,0.73-2.4
			c0.86-1.35,1.96-2.5,3.2-3.49c0.39-0.31,0.96-0.55,1.44-0.54c1.09,0.02,2.15,0.3,3.05,0.99c1.09,0.83,1.36,1.93,0.77,3.18
			c-0.47,0.98-0.97,1.94-1.13,3.04c-0.05,0.36-0.28,0.7-0.44,1.05c-0.17,0.37-0.41,0.73-0.51,1.12c-0.47,1.95-1.31,3.76-2.19,5.55
			c-0.86,1.77-0.07,4.3,1.56,5.41c0.76,0.51,1.52,0.54,2.32,0.12c0.91-0.48,1.82-0.96,2.75-1.4c1.35-0.64,2.49-1.5,3.39-2.72
			c0.49-0.67,1.17-1.24,1.88-1.69c1.23-0.79,2.56-1.43,3.83-2.16c0.64-0.37,1.33-0.55,2.03-0.33c1.21,0.39,2.08,1.18,2.48,2.43
			c0.23,0.72,0.1,1.34-0.45,1.85c-1.04,0.95-1.76,2.12-2.39,3.35c-0.28,0.55-0.55,1.1-0.85,1.64c-0.49,0.87-1.14,1.55-2.17,1.79
			c-0.27,0.06-0.54,0.24-0.74,0.43c-0.6,0.56-1.18,1.15-1.76,1.73c-0.93,0.93-1.4,2.06-1.59,3.36c-0.23,1.58,0.9,2.18,2,2.13
			c2.06-0.09,3.91-0.74,5.5-2.07c0.7-0.58,1.4-1.17,2.11-1.74c0.96-0.76,1.85-1.56,3.19-1.71c1.64-0.18,3.17-0.26,4.64,0.71
			c0.76,0.5,1.07,1.09,1.13,1.93c0.14,2.04-0.72,3.58-2.38,4.7c-0.95,0.64-1.91,1.26-2.9,1.84c-1.04,0.6-2.1,1.16-3.17,1.7
			c-0.91,0.47-1.86,0.87-2.77,1.35c-1.62,0.85-2.06,1.73-1.78,3.8c0.22,1.71,1.14,2.44,2.84,2.44c1.94,0.01,3.88-0.01,5.82,0.01
			c1.56,0.02,3.11,0.01,4.58-0.66c0.21-0.1,0.45-0.12,0.68-0.17c1.96-0.38,3.9,0.4,4.93,1.97c0.6,0.91,0.7,1.86,0.2,2.83
			c-0.51,0.99-1.36,1.54-2.48,1.56c-1.64,0.04-3.27,0.12-4.91,0.31c-2.78,0.33-5.37,1.17-7.91,2.29c-0.78,0.34-1.09,0.93-1.14,1.72
			c-0.04,0.61-0.11,1.23-0.13,1.84c-0.03,0.73,0.16,1.38,0.66,1.95c1.04,1.2,2.4,1.66,3.93,1.63c1.72-0.03,3.4,0.16,5.02,0.75
			c0.53,0.2,1.02,0.08,1.55-0.02c0.77-0.15,1.58-0.36,2.33-0.26c1.18,0.15,2.35,0.5,3.5,0.85c0.94,0.29,1.53,0.97,1.65,1.98
			c0.12,1.04-0.18,1.89-1.12,2.48c-2.48,1.57-5.08,2.18-8.05,1.71c-2.52-0.4-5.1-0.29-7.6,0.42c-1.36,0.39-2.25,1.59-2.27,3.01
			c-0.01,1.03,0.44,1.87,1.09,2.62c1.03,1.17,2.34,1.93,3.76,2.55c1.07,0.47,2.15,0.96,3.16,1.54c0.73,0.42,1.49,0.91,1.99,1.56
			c1.22,1.58,2.76,2.4,4.73,2.52c0.89,0.05,1.54,0.51,2,1.25c0.81,1.32,0.69,2.93-0.3,4.3c-0.54,0.75-1.26,1.07-2.15,0.79
			c-0.73-0.22-1.44-0.5-2.13-0.82c-1.94-0.9-3.87-1.82-5.79-2.77c-1.13-0.56-2.26-1.12-3.32-1.8c-1.33-0.84-2.74-1.21-4.28-1
			c-0.97,0.13-1.98,0.3-2.72,1.34c0.11,1.18,0.2,2.47,0.35,3.74c0.07,0.63,0.13,1.31,0.39,1.87c0.54,1.18,1.29,2.27,2.42,2.96
			c1.22,0.75,2.5,1.41,3.76,2.1c1.42,0.77,2.81,1.58,3.77,2.96c0.57,0.82,1.22,1.58,1.79,2.4c0.3,0.43,0.59,0.89,0.74,1.39
			c0.49,1.63-0.29,2.99-1.95,3.31c-0.83,0.16-1.7,0.24-2.53,0.18c-1.79-0.13-3.31-0.93-4.61-2.17c-0.72-0.69-1.46-1.36-2.25-1.97
			c-1.86-1.43-3.75-2.81-5.63-4.21c-0.12-0.09-0.23-0.18-0.36-0.26c-1.1-0.68-3.11-0.19-3.3,1.43c-0.09,0.73-0.26,1.44-0.39,2.16
			c-0.1,0.51,0,0.97,0.3,1.42c0.61,0.9,1.21,1.8,1.76,2.74c1.81,3.12,4.29,5.64,7.05,7.91c1.29,1.06,1.39,3.4,0.12,4.72
			c-0.58,0.04-1.25,0.09-1.92,0.14c-1.34,0.09-2.45-0.36-3.42-1.3c-1.24-1.21-2.55-2.35-3.85-3.49c-0.56-0.49-1-1.05-1.3-1.74
			c-0.23-0.53-0.6-1.02-0.99-1.44c-1-1.1-2.28-1.85-3.6-2.49c-0.96-0.47-2-0.41-2.99,0.03c-0.96,0.43-1.41,1.17-1.21,2.19
			c0.17,0.89,0.39,1.78,0.73,2.61c0.73,1.76,1.57,3.48,2.35,5.22c0.17,0.37,0.37,0.77,0.37,1.16c0.04,2.08,0.06,4.17,0.02,6.26
			c-0.02,0.94-0.67,1.57-1.54,1.64c-1.66,0.14-3.13-0.3-4.36-1.48c-0.89-0.86-1.46-1.91-1.93-3.02c-0.36-0.86-0.63-1.79-1.12-2.58
			c-1.14-1.86-2.65-3.44-4.28-4.89c-0.95-0.85-2.19-0.6-2.85,0.49c-0.24,0.4-0.45,0.82-0.67,1.24c-0.33,0.62-0.43,1.27-0.19,1.95
			c0.22,0.64,0.39,1.29,0.61,1.93c0.32,0.89,0.32,1.77,0.02,2.67c-0.14,0.44-0.22,0.91-0.22,1.37c-0.01,1.92-0.68,3.68-1.32,5.44
			c-0.29,0.79-0.96,1.19-1.82,1.11c-0.46-0.04-0.94-0.12-1.36-0.29c-1.94-0.77-2.74-2.36-3.02-4.31c-0.33-2.38-0.68-4.76-1.01-7.14
			c-0.1-0.74-0.39-1.37-1.02-1.77c-1.07-0.7-2.26-0.98-3.53-0.79c-1.41,0.2-2.5,1.8-2.28,3.17c0.07,0.47,0.03,0.98-0.08,1.45
			c-0.22,0.94-0.7,1.86-0.73,2.8c-0.05,1.58-0.39,3.08-0.75,4.59c-0.17,0.73-0.47,1.44-0.74,2.14
			C94.63,165.44,94.33,166.08,94.05,166.72z M138.8,95.12c0.04,0,0.09,0,0.13-0.01c-0.1-1.43-0.07-2.89-0.33-4.29
			c-0.28-1.48-0.47-2.95-0.46-4.45c0-0.26-0.05-0.53-0.1-0.78c-0.27-1.33-0.69-2.6-1.35-3.8c-0.38-0.7-0.73-1.42-0.66-2.25
			c0.06-0.65-0.2-1.18-0.51-1.73c-0.91-1.57-1.78-3.17-2.68-4.74c-0.3-0.53-0.61-1.07-0.98-1.56c-0.62-0.82-1.28-1.61-1.93-2.4
			c-1.22-1.5-2.36-3.07-3.96-4.22c-0.67-0.48-1.17-1.21-1.75-1.82c-0.16-0.17-0.29-0.37-0.48-0.5c-0.97-0.66-1.94-1.32-2.94-1.93
			c-1.2-0.73-2.44-1.4-3.65-2.11c-1-0.58-2.02-1.07-3.2-1.17c-1.16-0.1-2.24-0.45-3.27-0.98c-1.69-0.87-3.42-1.68-5.24-2.26
			c-0.11-0.03-0.22-0.09-0.32-0.14c-1.17-0.63-2.42-0.83-3.74-0.82c-1.49,0.01-2.99-0.07-4.48-0.17c-0.7-0.05-1.38-0.27-2.08-0.33
			c-1.23-0.11-2.46-0.12-3.68-0.26c-1.4-0.16-2.72-0.06-4.06,0.45c-0.85,0.32-1.85,0.52-2.74,0.41c-1.46-0.18-2.71,0.13-3.97,0.79
			c-0.85,0.45-1.76,0.79-2.66,1.13c-1.15,0.43-2.33,0.79-3.48,1.22c-0.96,0.36-1.9,0.77-2.82,1.21c-0.73,0.35-1.48,0.71-2.13,1.2
			c-1.07,0.81-2.07,1.72-3.1,2.59c-0.67,0.57-1.4,1.08-2,1.71c-1.15,1.21-2.13,2.59-3.36,3.71c-1.28,1.16-2.08,2.5-2.46,4.15
			c-0.02,0.09-0.07,0.16-0.08,0.25c-0.17,0.86-0.61,1.57-1.16,2.24c-1.35,1.65-2.36,3.49-3.05,5.51c-0.33,0.97-0.67,1.93-1.09,2.86
			c-0.43,0.96-0.99,1.86-1.45,2.82c-0.22,0.47-0.43,0.98-0.47,1.49c-0.11,1.46-0.19,2.93-0.19,4.4c0,1.88,0.12,3.75,0.14,5.63
			c0.01,0.89,0.11,1.75,0.39,2.59c0.28,0.83,0.33,1.7-0.12,2.48c-0.99,1.73-0.98,3.52-0.45,5.36c0.66,2.28,1.34,4.55,1.99,6.84
			c0.46,1.65,1.13,3.21,2.06,4.64c0.87,1.35,1.48,2.8,1.73,4.38c0.15,0.97,0.61,1.76,1.3,2.44c0.98,0.97,1.95,1.95,2.9,2.95
			c1.92,2.01,3.43,4.38,5.64,6.15c1.09,0.87,2.15,1.72,3.44,2.25c3.09,1.27,6.18,2.55,9.28,3.81c2.41,0.98,4.87,1.69,7.53,1.32
			c0.46-0.06,0.94,0.02,1.4,0.07c1.78,0.19,3.39,0.88,5.01,1.59c1.82,0.8,3.7,1.1,5.63,0.29c0.62-0.26,1.26-0.48,1.92-0.64
			c0.82-0.19,1.67-0.41,2.5-0.42c2.94-0.05,5.75-0.59,8.45-1.81c2.83-1.28,5.72-2.44,8.55-3.73c0.67-0.3,1.27-0.83,1.82-1.34
			c1.24-1.12,2.36-2.38,3.65-3.43c1.42-1.15,2.57-2.49,3.46-4.05c0.43-0.75,0.84-1.48,1.51-2.03c1.21-0.99,1.91-2.28,2.23-3.79
			c0.22-1.02,0.68-1.92,1.32-2.75c1.07-1.38,1.83-2.9,2.07-4.68c0.18-1.3,0.44-2.61,0.88-3.84c0.58-1.6,0.99-3.19,0.84-4.89
			c-0.08-0.93,0.23-1.73,0.79-2.45c0.16-0.21,0.31-0.43,0.46-0.64c0.69-1.01,0.81-2.1,0.25-3.17c-0.52-0.98-0.64-2-0.64-3.06
			C138.8,96.11,138.8,95.62,138.8,95.12z"/>
	</g>
	<g>
		<path class="st0" d="M538.1,133.49c-0.89,0.45-0.83,1.43-0.83,2.11c-0.02,2.17-0.6,4.19-1.3,6.18c-1.22,3.47-2.36,6.99-4.87,9.83
			c-0.11,0.13-0.24,0.26-0.3,0.41c-1.23,3.19-3.74,5.27-6.31,7.32c-1.12,0.89-2.02,2.08-3.16,2.94c-1.55,1.17-3.05,2.43-4.87,3.2
			c-0.66,0.28-1.25,0.71-1.87,1.08c-1.13,0.67-2.27,1.25-3.58,1.58c-1.3,0.32-2.52,0.99-3.77,1.5c-0.63,0.25-1.25,0.52-1.89,0.71
			c-3.59,1.02-7.28,1.55-10.96,2.12c-0.17,0.03-0.36,0.07-0.51,0.02c-1.8-0.69-3.61-0.02-5.41-0.08c-0.93-0.03-1.87-0.06-2.78-0.19
			c-1.97-0.28-3.96-0.52-5.9-0.98c-1.85-0.45-3.65-1.13-5.45-1.76c-1.04-0.36-2.05-0.79-3.05-1.26c-0.34-0.16-0.57-0.52-0.8-0.74
			c0.24-0.82,0.76-0.96,1.34-1.01c1.31-0.12,2.62-0.19,3.92-0.39c0.82-0.13,1.63-0.42,2.43-0.68c1.16-0.38,2.31-0.79,3.47-1.18
			c0.2-0.07,0.4-0.13,0.59-0.23c2.54-1.28,5.1-2.49,7.48-4.09c2.47-1.66,4.76-3.51,6.87-5.58c0.68-0.66,1.05-1.62,1.59-2.43
			c0.37-0.56,0.77-1.1,1.17-1.64c0.46-0.65,1.08-1.23,1.37-1.95c0.98-2.44,1.94-4.89,2.73-7.39c0.44-1.4,0.62-2.91,0.74-4.38
			c0.13-1.68,0.05-3.38,0.07-5.07c0-0.25,0.08-0.51,0.06-0.76c-0.04-0.49-0.11-0.99-0.21-1.47c-0.21-0.99-0.45-1.97-0.68-2.95
			c-0.11-0.49-0.16-1.01-0.36-1.46c-0.76-1.66-1.62-3.27-2.35-4.93c-0.69-1.58-1.75-2.89-2.86-4.17c-0.52-0.61-0.96-1.29-1.47-1.92
			c-2.85-3.5-6.39-6.14-10.34-8.29c-1.68-0.91-3.32-1.83-5.25-2.16c-0.78-0.13-1.54-0.5-2.23-0.91c-1.46-0.86-3.04-1.26-4.71-1.42
			c-1.68-0.16-3.35-0.35-5.02-0.59c-1.14-0.17-2.26-0.17-3.41-0.03c-1.06,0.13-2.15-0.01-3.3-0.52c1.4-1.07,2.66-2.03,3.93-2.98
			c0.13-0.1,0.32-0.14,0.44-0.25c2.19-2.08,4.99-3,7.71-4.08c0.43-0.17,0.86-0.38,1.26-0.61c0.79-0.44,1.6-0.75,2.52-0.74
			c0.34,0,0.73-0.01,1-0.17c1.5-0.92,3.24-0.97,4.87-1.36c1.76-0.42,3.6-0.48,5.41-0.68c2.11-0.23,4.22-0.28,6.32-0.04
			c1.55,0.18,3.09,0.48,4.63,0.73c1.42,0.23,2.83,0.55,4.26,0.68c1.91,0.17,3.61,0.86,5.31,1.65c1.11,0.51,2.28,0.88,3.4,1.36
			c0.78,0.33,1.56,0.68,2.28,1.12c1.86,1.17,3.94,1.98,5.62,3.45c1.25,1.09,2.5,2.16,3.76,3.24c0.32,0.28,0.62,0.61,0.99,0.79
			c1.56,0.76,2.28,2.22,3.09,3.61c0.19,0.33,0.32,0.74,0.59,0.98c2,1.8,2.99,4.3,4.44,6.46c0.71,1.06,1.03,2.4,1.5,3.62
			c0.83,2.17,0.78,4.59,1.88,6.7c0.21,0.41,0.12,0.99,0.12,1.49c0,0.72-0.06,1.43-0.04,2.15c0.03,1.35,0.09,2.71,0.17,4.06
			c0.03,0.44-0.09,0.98,0.55,1.15c0,0.09,0,0.17,0,0.26c-0.1,0.03-0.2,0.06-0.39,0.13c0.19,0.06,0.29,0.1,0.39,0.13
			c0,0.09,0,0.17,0,0.26c-0.1,0.03-0.2,0.07-0.39,0.13c0.2,0.06,0.29,0.09,0.39,0.12C538.1,133.32,538.1,133.41,538.1,133.49z"/>
		<path class="st0" d="M445.68,110.01c1.55-1.3,1.96-2.38,1.72-4.74c0.3,0.15,0.57,0.22,0.76,0.39c0.47,0.42,0.85,0.96,1.37,1.31
			c0.46,0.32,1.02,0.55,1.57,0.66c0.9,0.19,0.95,0.17,1.37,1.07c-0.42,0.66-0.85,1.33-1.18,1.87c-0.15,0.99,0.87,1.72,0,2.72
			c-0.37-0.33-0.75-0.62-1.07-0.98c-0.68-0.76-1.46-1.1-2.49-0.86c-0.72,0.17-1.44,0.07-2.05-0.41
			C445.68,110.69,445.68,110.35,445.68,110.01z"/>
		<path class="st0" d="M501.59,64.65c0.24-1.45,1.64-2.2,1.35-3.56c-0.24-1.15-0.49-2.3-0.76-3.54c0.85,0.3,1.29,1.1,1.78,1.75
			c1.49,1.98,1.46,2.01,3.95,2.38c-0.02,0.4,0.11,0.92-0.09,1.22c-0.66,1-0.51,1.99-0.27,3.05c0.13,0.57,0.49,1.2-0.13,1.91
			c-0.38-0.29-0.76-0.53-1.08-0.83c-0.4-0.38-0.78-0.78-1.11-1.21c-0.51-0.67-1.19-0.89-1.99-0.94
			C502.74,64.85,502.26,64.74,501.59,64.65z"/>
		<path class="st0" d="M501.97,78.5c-0.73,1.67-1.24,3.31-0.71,5.2c-1.87,0.54-2.66-1.35-4.42-1.6c-0.49,0.02-1.34,0.06-2.18,0.1
			c-0.07-0.09-0.14-0.18-0.21-0.27c2.34-1.47,2.21-3.71,1.97-5.94c0.84,0.67,1.55,1.47,2.45,1.88
			C499.73,78.28,500.79,78.29,501.97,78.5z"/>
		<path class="st0" d="M458.28,160.92c1.39-1.14,1.31-2.79,1.25-4.52c1.61,0.19,1.79,1.68,2.8,2.58c0.45,0.13,1.09,0.32,1.91,0.56
			c-0.39,0.85-0.79,1.62-1.08,2.42c-0.28,0.78,0.48,1.79-0.58,2.54c-0.39-0.43-0.83-0.82-1.17-1.28c-0.51-0.69-1.1-1.14-1.99-1.19
			C458.88,162,458.44,161.75,458.28,160.92z"/>
		<path class="st0" d="M482.42,129.9c-1.65,1.52-1.41,3.27-1.1,5.02c-0.09,0.04-0.18,0.08-0.27,0.12c-0.27-0.21-0.6-0.38-0.79-0.65
			c-0.82-1.13-1.7-2.13-3.3-1.92c-0.08,0.01-0.19-0.15-0.29-0.24c0.32-0.91,0.77-1.79,0.92-2.71c0.15-0.87-0.48-1.8,0.13-2.88
			c0.74,0.66,1.36,1.33,2.1,1.84C480.53,128.99,481.35,129.33,482.42,129.9z"/>
		<path class="st0" d="M461.97,116.37c1.38,1.12,2.64,2.13,4.09,3.31c-0.14,0.69-0.36,1.58-0.47,2.48
			c-0.11,0.89,0.69,1.72,0.19,2.89c-1.32-1.28-2.44-2.72-4.36-2.71c0.24-1.11,0.51-2.03,0.62-2.98
			C462.15,118.47,461.41,117.6,461.97,116.37z"/>
	</g>
</g>
</svg>
