<?xml version="1.0" encoding="utf-8"?>
<!-- Generator: Adobe Illustrator 28.2.0, SVG Export Plug-In . SVG Version: 6.00 Build 0)  -->
<svg version="1.1" id="Layer_1" xmlns="http://www.w3.org/2000/svg" xmlns:xlink="http://www.w3.org/1999/xlink" x="0px" y="0px"
	 viewBox="0 0 146 136" style="enable-background:new 0 0 146 136;" xml:space="preserve">
<style type="text/css">
	.st0{fill:#C49A49;}
</style>
<g id="_01_align_center_00000166657494716910413870000007242644993728619137_">
	<g>
		<path class="st0" d="M120.04,70.76v-7.48c0-26.11-21.16-47.27-47.27-47.27S25.5,37.17,25.5,63.28v7.48
			c-13.27,5.85-19.3,21.34-13.45,34.62c4.18,9.5,13.57,15.65,23.96,15.68h10.51V68.53H36v-5.25c0-20.31,16.46-36.77,36.77-36.77
			s36.77,16.46,36.77,36.77v5.25H99.03v52.53h10.51c14.5-0.04,26.23-11.84,26.18-26.34C135.69,84.34,129.55,74.95,120.04,70.76z
			 M36,110.55c-8.7,0-15.76-7.05-15.76-15.76S27.3,79.04,36,79.04V110.55z M109.54,110.55V79.04c8.7,0,15.76,7.05,15.76,15.76
			S118.24,110.55,109.54,110.55z"/>
	</g>
</g>
</svg>
